<svg id="Layer_1" data-name="Layer 1" xmlns="http://www.w3.org/2000/svg" viewBox="0 0 515.29 515.29"><defs><style>.cls-1{fill:#ffb347;}.cls-2{font-size:80px;fill:#3671a5;font-family:Bauhaus93, "Bauhaus 93";}</style></defs><title>logo</title><circle class="cls-1" cx="257.65" cy="257.65" r="185.78"/><polygon class="cls-1" points="439.83 75.46 430.19 111.44 420.55 147.42 394.21 121.08 367.88 94.74 403.85 85.1 439.83 75.46"/><polygon class="cls-1" points="75.46 439.83 85.1 403.85 94.74 367.88 121.08 394.21 147.42 420.55 111.44 430.19 75.46 439.83"/><polygon class="cls-1" points="515.29 257.65 483.04 276.27 450.78 294.89 450.78 257.65 450.78 220.4 483.04 239.02 515.29 257.65"/><polygon class="cls-1" points="0 257.65 32.26 239.02 64.51 220.4 64.51 257.65 64.51 294.89 32.26 276.27 0 257.65"/><polygon class="cls-1" points="439.83 439.83 403.85 430.19 367.88 420.55 394.21 394.21 420.55 367.88 430.19 403.85 439.83 439.83"/><polygon class="cls-1" points="75.46 75.46 111.44 85.1 147.42 94.74 121.08 121.08 94.74 147.42 85.1 111.44 75.46 75.46"/><polygon class="cls-1" points="257.65 515.29 239.02 483.04 220.4 450.78 257.65 450.78 294.89 450.78 276.27 483.04 257.65 515.29"/><polygon class="cls-1" points="257.65 0 276.27 32.26 294.89 64.51 257.65 64.51 220.4 64.51 239.02 32.26 257.65 0"/><text class="cls-2" transform="translate(108.17 286.39) rotate(-20.22)">Summer<tspan x="0" y="96">Camp</tspan></text></svg>