<svg id="Layer_1" data-name="Layer 1" xmlns="http://www.w3.org/2000/svg" xmlns:xlink="http://www.w3.org/1999/xlink" viewBox="0 0 555.08 555.08"><defs><style>.cls-1{fill:url(#Unbenannter_Verlauf_13);}.cls-2{fill:#3671a5;stroke:#fff;stroke-miterlimit:10;stroke-width:3px;}.cls-3{fill:#ff0;}.cls-4{fill:#fbb03b;}.cls-5{fill:url(#Unbenannter_Verlauf_13-2);}.cls-6{fill:url(#Unbenannter_Verlauf_13-3);}</style><linearGradient id="Unbenannter_Verlauf_13" x1="146.15" y1="147.18" x2="408.88" y2="409.91" gradientUnits="userSpaceOnUse"><stop offset="0" stop-color="#ffb347"/><stop offset="1" stop-color="#fcee21"/></linearGradient><linearGradient id="Unbenannter_Verlauf_13-2" x1="547.78" y1="92.42" x2="624.15" y2="168.79" xlink:href="#Unbenannter_Verlauf_13"/><linearGradient id="Unbenannter_Verlauf_13-3" x1="217.8" y1="422.49" x2="294.16" y2="498.85" xlink:href="#Unbenannter_Verlauf_13"/></defs><title>logo</title><circle class="cls-1" cx="277.51" cy="278.54" r="185.78"/><path class="cls-2" d="M318.9,294.34l-11.32,4.17c-1.82-3.39-4.59-5.09-8.3-3.72-2.58.95-3.87,2.85-2.9,5.49s3.65,3.73,11.45,2.78c10.39-1.25,16.05,2.09,18.5,8.75,3.2,8.68-3.48,16.14-12.22,19.36-11,4.05-20,2.38-24.32-7.11l11.31-4.17c2.26,3.81,6.24,4.34,9.64,3.09,3.14-1.15,4.93-3.67,4.05-6.06s-3.19-3.61-9-3c-10.77,1.18-17.69.24-20.89-8.44-3.08-8.36,3-15.95,11.59-19.12C307.92,282.18,315,286.64,318.9,294.34Z" transform="translate(-143.43 -20.1)"/><path class="cls-2" d="M368.73,310l-11.31,4.17-2.09-5.66-1.33,5.7a14.8,14.8,0,0,1-6.82,4.73c-6.92,2.55-12.57.2-15-4.11a45.82,45.82,0,0,1-2.65-6.23L322.29,289l11.32-4.17,6.3,17.11a46.78,46.78,0,0,0,1.94,4.49c1.56,3.07,3.76,4.4,7.34,3.08s4.5-5.44,2.85-9.9l-7-19,11.31-4.17Z" transform="translate(-143.43 -20.1)"/><path class="cls-2" d="M422.62,267.91l7.22,19.62-11.31,4.17-6.3-17.1a48.77,48.77,0,0,0-2-4.5c-1.56-3.07-3.76-4.4-6.71-3.31-3.65,1.34-3.87,5.21-1.76,10.93l6.53,17.73L397,299.62l-6.3-17.1a48.31,48.31,0,0,0-1.94-4.5c-1.56-3.06-3.76-4.4-6.72-3.31-3.64,1.35-3.86,5.21-1.75,10.93l6.53,17.73-11.32,4.17L363.15,274l11.32-4.17,2,5.41,1.11-5.34a13.7,13.7,0,0,1,6.51-4.61c5.72-2.11,10.35-.6,13.16,2.58l1.83-5.89a13.7,13.7,0,0,1,6.51-4.61c6.73-2.48,11.94,0,14.38,4.34A47.56,47.56,0,0,1,422.62,267.91Z" transform="translate(-143.43 -20.1)"/><path class="cls-2" d="M483.35,245.54l7.22,19.62-11.31,4.16-6.3-17.1a48.75,48.75,0,0,0-1.95-4.49c-1.55-3.07-3.76-4.4-6.71-3.31-3.65,1.34-3.87,5.21-1.76,10.93l6.53,17.73-11.32,4.17-6.3-17.1a45.75,45.75,0,0,0-1.94-4.5c-1.56-3.07-3.76-4.4-6.72-3.31-3.64,1.34-3.86,5.21-1.75,10.93L447.57,281l-11.32,4.17-12.37-33.58,11.32-4.16,2,5.4,1.11-5.33a13.7,13.7,0,0,1,6.51-4.61c5.72-2.11,10.35-.6,13.16,2.57l1.83-5.88a13.78,13.78,0,0,1,6.51-4.62c6.73-2.47,11.94,0,14.38,4.35A47,47,0,0,1,483.35,245.54Z" transform="translate(-143.43 -20.1)"/><path class="cls-2" d="M524.53,236.79l-23.38,8.62c2.62,5.38,5.65,6.05,8.86,4.87s4.55-3.53,4-6.27l11.13-4.1c.86,8.32-3.86,14.92-12.47,18.09-9.62,3.54-19.4.65-23.75-11.17-3.61-9.81.17-20.27,11.36-24.4s20,2.35,23.2,11A32.26,32.26,0,0,1,524.53,236.79ZM499,238.35l11.38-4.19c-2.09-3.73-4.76-5-7.78-3.85S498.2,233.93,499,238.35Z" transform="translate(-143.43 -20.1)"/><path class="cls-2" d="M545,206.18l3.4,9.24c-8.69,2.56-10.61,6.84-6.89,17l4.54,12.32-11.31,4.17L522.4,215.3l11.32-4.17,2.5,6.79.65-5.59a9.8,9.8,0,0,1,5.51-5.39A15.47,15.47,0,0,1,545,206.18Z" transform="translate(-143.43 -20.1)"/><path class="cls-2" d="M392.42,344.33l.3.61-11.33,4.13-.36-.58c-2.64-4.31-6.28-5.48-10.87-3.8-5.42,2-7.85,8-4.43,17.38,4,10.95,9.89,13,14.93,11.17,4.4-1.61,6.25-5.35,5.44-10.48l-.1-.68L397.33,358l.16.65c2.75,10.84-3.29,19.11-14.18,23.08-11.64,4.26-23.78.13-29.15-14.6-5.52-15.1,1.32-26.45,13.09-30.75C379.64,331.81,388.42,336.09,392.42,344.33Z" transform="translate(-143.43 -20.1)"/><path class="cls-2" d="M425.31,359.78l-.09,4a16.45,16.45,0,0,1-7.48,5.3c-5.54,2-12,.47-14.4-6-2.62-7.17,2.57-14.06,14-18.22l2.14-.78-.18-.5a20,20,0,0,0-1-2.41c-.81-1.63-2.74-2.64-5.2-1.74-2.64,1-3.53,3.22-2.66,6.18l-10.68,4c-2.81-7.89,2.55-14.91,11-18,10.64-3.89,16-.5,18.75,5.42.74,1.65,1.52,3.58,2.28,5.66l3.45,9.44a60.2,60.2,0,0,0,3.73,8.26l-11.08,4.05Zm-2.72-7.07-.8-2.2c-5.24,1.48-8.41,4.14-7.19,7.47.74,2,2.72,2.58,5,1.75A5.27,5.27,0,0,0,422.59,352.71Z" transform="translate(-143.43 -20.1)"/><path class="cls-2" d="M492.31,318.61l7.17,19.64-11.33,4.14-6.25-17.12a47.86,47.86,0,0,0-1.93-4.5c-1.55-3.07-3.75-4.41-6.71-3.33-3.65,1.33-3.88,5.2-1.79,10.92L478,346.11l-11.32,4.14-6.26-17.12a47.86,47.86,0,0,0-1.93-4.5c-1.55-3.07-3.75-4.41-6.7-3.33-3.65,1.33-3.88,5.2-1.79,10.93L456.43,354l-11.33,4.14L432.83,324.5l11.33-4.13,2,5.41,1.12-5.33a13.75,13.75,0,0,1,6.53-4.6c5.72-2.09,10.35-.57,13.15,2.62l1.85-5.88a13.72,13.72,0,0,1,6.52-4.6c6.73-2.46,11.94.06,14.37,4.38A48.11,48.11,0,0,1,492.31,318.61Z" transform="translate(-143.43 -20.1)"/><path class="cls-2" d="M536.67,304.76c4.37,12-.56,21.11-9.18,24.26-2.77,1-6.27,1.57-8.34,1.19l-3.51-2.79,6.09,16.68-11.33,4.14L493.62,302.3,505,298.16l1.79,4.91,1.16-4.63c1.38-2.08,4.4-4,7.8-5.21C524.83,289.9,533,294.82,536.67,304.76Zm-11.37,4.79c-2.3-6.29-6.73-8.66-10.7-7.21-4.15,1.51-6.25,5.13-3.68,12.18l.53,1.45c2.46,6.73,6.75,7.74,10.15,6.49C526,320.85,527.81,316.42,525.3,309.55Z" transform="translate(-143.43 -20.1)"/><path class="cls-3" d="M421,575.18,408.56,555l-6-9.7q-2.18-3.66-4.36-7.3C388,520.82,377,503.82,367,486.82a188.66,188.66,0,0,0,98.25,1.66c3.25-.59,6.5-1.16,9.75-1.66q-2.43,3.57-4.7,7.21c-8.3,14.79-16.3,29.79-26,44.23q-2.35,3.57-4.89,7l-6,9.71Z" transform="translate(-143.43 -20.1)"/><path class="cls-4" d="M420.92,20.1l12.47,20.15,6,9.7q2.16,3.66,4.35,7.29c10.2,17.21,21.2,34.21,31.2,51.21a188.52,188.52,0,0,0-98.24-1.65c-3.25.59-6.51,1.15-9.75,1.65,1.62-2.37,3.18-4.78,4.7-7.21,8.29-14.79,16.29-29.79,26-44.22q2.36-3.57,4.9-7l6-9.71Z" transform="translate(-143.43 -20.1)"/><path class="cls-3" d="M617.26,493.86l-23.06-5.44-11.11-2.62-8.23-2.08c-19.39-5-39.19-9.19-58.28-14.14a188.74,188.74,0,0,0,70.64-68.3c1.89-2.72,3.78-5.42,5.73-8.07.53,2.83,1.13,5.63,1.77,8.42,4.59,16.33,9.54,32.59,12.91,49.64.57,2.8,1.08,5.61,1.51,8.44l2.64,11.1Z" transform="translate(-143.43 -20.1)"/><path class="cls-4" d="M224.69,101.42l23.06,5.44,11.1,2.61c2.75.71,5.49,1.4,8.24,2.09,19.38,5,39.18,9.19,58.27,14.14A188.59,188.59,0,0,0,254.72,194c-1.88,2.72-3.78,5.42-5.72,8.07-.53-2.83-1.13-5.64-1.78-8.43-4.59-16.32-9.54-32.58-12.9-49.64-.57-2.79-1.09-5.6-1.52-8.43l-2.64-11.1Z" transform="translate(-143.43 -20.1)"/><path class="cls-3" d="M698.51,295.59l-20.15,12.46-9.7,6-7.3,4.36c-17.2,10.2-34.2,21.2-51.2,31.2a188.52,188.52,0,0,0,1.65-98.24c-.59-3.26-1.15-6.51-1.65-9.76,2.37,1.63,4.78,3.19,7.21,4.7,14.79,8.3,29.79,16.3,44.22,26q3.57,2.35,7,4.89l9.71,6Z" transform="translate(-143.43 -20.1)"/><path class="cls-4" d="M143.43,295.69l20.15-12.47,9.7-6q3.66-2.16,7.3-4.35c17.21-10.2,34.21-21.2,51.21-31.2a188.63,188.63,0,0,0-1.66,98.24c.59,3.25,1.16,6.51,1.66,9.76-2.38-1.63-4.78-3.19-7.21-4.71-14.79-8.29-29.79-16.29-44.23-26q-3.57-2.36-7-4.9l-9.71-6Z" transform="translate(-143.43 -20.1)"/><path class="cls-5" d="M617.19,99.35l-5.44,23.07-2.61,11.1c-.71,2.74-1.4,5.49-2.08,8.23-5,19.39-9.2,39.19-14.15,58.28a188.59,188.59,0,0,0-68.3-70.64c-2.72-1.88-5.42-3.78-8.07-5.73,2.83-.53,5.64-1.13,8.43-1.77,16.32-4.59,32.59-9.54,49.64-12.91,2.79-.57,5.6-1.08,8.43-1.51l11.1-2.64Z" transform="translate(-143.43 -20.1)"/><path class="cls-6" d="M224.76,491.92l5.43-23.06,2.62-11.1c.7-2.75,1.39-5.49,2.08-8.24,5-19.38,9.19-39.18,14.14-58.27a188.74,188.74,0,0,0,68.3,70.64c2.72,1.88,5.42,3.78,8.07,5.72-2.83.53-5.63,1.13-8.42,1.78-16.33,4.59-32.59,9.54-49.64,12.9-2.8.57-5.61,1.09-8.44,1.52l-11.1,2.64Z" transform="translate(-143.43 -20.1)"/></svg>